<svg id="Layer_2" xmlns="http://www.w3.org/2000/svg" viewBox="0 0 28 28"><defs><style>.cls-1{fill:#ff2422;}.cls-1,.cls-2{stroke-width:0px;}.cls-2{fill:#fff;}</style></defs><g id="Layer_1-2"><path class="cls-1" d="M0,14c0,11.5,2.5,14,14,14,11.5,0,14-2.5,14-14C28,2.5,25.5,0,14,0,2.5,0,0,2.5,0,14Z"/><circle class="cls-2" cx="14.39" cy="5.35" r="2.46"/><path class="cls-2" d="M9.59,24.35h-.99v-9.42c0-3.23,2.6-5.92,5.83-5.9s5.75,2.59,5.76,5.76c.02,3.23-2.67,5.83-5.9,5.83h-1.65v-.99c0-.92.74-1.66,1.66-1.66,1.82,0,3.2-1.35,3.24-3.07.04-1.79-1.42-3.25-3.21-3.21s-3.07,1.49-3.07,3.21v7.8c0,.92-.74,1.66-1.66,1.66Z"/></g></svg>